<svg width="16" height="16" viewBox="0 0 16 16" fill="none" xmlns="http://www.w3.org/2000/svg">
<path d="M6.70267 5.57333L13.4327 0.22C13.2227 0.082 12.972 0 12.702 0H0.702C0.444 0 0.204667 0.0766668 0 0.204667L6.70267 5.57333Z" transform="translate(1.29834 2.66675)" fill="#444444"/>
<path d="M14.5093 0.026667L7.53067 5.57C7.412 5.65933 7.25333 5.65933 7.13467 5.56933L0.173333 0C0.0666667 0.191333 0.000666667 0.408 0 0.642667V7.976C0.000666667 8.71133 0.598667 9.30933 1.334 9.30933H13.3327C14.068 9.30933 14.666 8.71133 14.6667 7.976V0.642667C14.6667 0.419333 14.6067 0.211334 14.5093 0.026667Z" transform="translate(0.666504 3.35742)" fill="#444444"/>
</svg>
