<svg width="16" height="16" viewBox="0 0 16 16" fill="none" xmlns="http://www.w3.org/2000/svg">
<path d="M0.363333 2.34733C0.451333 2.19467 0.552 2.05333 0.666667 1.92133V0H0V2.348L0.363333 2.34733Z" transform="translate(5.3335 4)" fill="#444444"/>
<path d="M2 4C3.10457 4 4 3.10457 4 2C4 0.895431 3.10457 0 2 0C0.895431 0 0 0.895431 0 2C0 3.10457 0.895431 4 2 4Z" transform="translate(6 5.66675)" fill="#444444"/>
<path d="M0 1.37067C0.394 1.14133 0.846 1 1.33333 1C2.318 1 3.16933 1.542 3.63133 2.33733L5.33333 2.334V1.22067C5.33333 0.548 4.78533 0 4.11133 0H0V1.37067ZM4 0.666667H4.66667V1.33333H4V0.666667Z" transform="translate(6.6665 4)" fill="#444444"/>
<path d="M8 0C3.58867 0 0 3.58867 0 8C0 12.4113 3.58867 16 8 16C12.4113 16 16 12.4113 16 8C16 3.58867 12.4113 0 8 0ZM12.6667 10.7773C12.6667 11.8193 11.8193 12.6667 10.778 12.6667H5.222C4.18067 12.6667 3.33333 11.8193 3.33333 10.7773V5.22133C3.33333 4.18 4.18067 3.33333 5.222 3.33333H10.778C11.8193 3.33333 12.6667 4.18 12.6667 5.22133V10.7773Z" fill="#444444"/>
<path d="M0.666667 2.20933V0C0.272667 0.202667 0 0.608666 0 1.08133V2.21133L0.666667 2.20933Z" transform="translate(4 4.13989)" fill="#444444"/>
</svg>
