<svg width="16" height="16" viewBox="0 0 16 16" fill="none" xmlns="http://www.w3.org/2000/svg">
<path d="M8 0C3.58867 0 0 3.58867 0 8C0 12.4113 3.58867 16 8 16C12.4113 16 16 12.4113 16 8C16 3.58867 12.4113 0 8 0ZM11.508 6.25667C11.512 6.332 11.5133 6.40733 11.5133 6.48333C11.5133 8.80133 9.74867 11.476 6.52133 11.476C5.53067 11.476 4.608 11.1847 3.83133 10.6867C4.74733 10.794 5.67933 10.5487 6.42933 9.96067C5.662 9.94533 5.014 9.43867 4.79067 8.74133C5.05533 8.79133 5.326 8.782 5.58267 8.71067C4.78 8.55067 4.17533 7.84067 4.17533 6.99133C4.17533 6.984 4.17533 6.976 4.17533 6.968C4.412 7.09933 4.68333 7.178 4.97 7.188C4.49933 6.87267 4.18933 6.33667 4.18933 5.728C4.18933 5.40667 4.276 5.10533 4.42667 4.84533C5.292 5.90733 6.58467 6.60667 8.04333 6.67867C8.01333 6.55067 7.998 6.416 7.998 6.27933C7.998 5.31 8.784 4.52467 9.75333 4.52467C10.258 4.52467 10.7133 4.73733 11.034 5.07933C11.434 5 12.334 4.902 12.334 4.902C12.098 5.25467 11.8507 6.00867 11.508 6.25667Z" fill="#444444"/>
</svg>
