<svg width="16" height="16" viewBox="0 0 16 16" fill="none" xmlns="http://www.w3.org/2000/svg">
<path d="M0.501333 0.0454198C0.398667 -0.0145802 0.271334 -0.0152468 0.167334 0.0440865C0.0640003 0.104087 0 0.21342 0 0.33342V3.60409C0 3.72275 0.0626665 3.83209 0.164666 3.89209C0.216666 3.92342 0.275333 3.93742 0.333333 3.93742C0.389333 3.93742 0.446 3.92342 0.496667 3.89542L3.352 2.29075C3.456 2.23209 3.52067 2.12275 3.522 2.00275C3.52267 1.88275 3.46 1.77209 3.35667 1.71275L0.501333 0.0454198Z" transform="translate(6.6665 6)" fill="#444444"/>
<path d="M8 0C3.58867 0 0 3.58867 0 8C0 12.4113 3.58867 16 8 16C12.4113 16 16 12.4113 16 8C16 3.58867 12.4113 0 8 0ZM12.6667 9.504C12.6667 10.5127 11.8467 11.3333 10.8387 11.3333H5.16067C4.15267 11.3333 3.33333 10.5127 3.33333 9.504V6.49533C3.33333 5.48733 4.15267 4.66667 5.16067 4.66667H10.8387C11.8467 4.66667 12.6667 5.48733 12.6667 6.49533V9.504Z" fill="#444444"/>
</svg>
