<svg width="16" height="16" viewBox="0 0 16 16" fill="none" xmlns="http://www.w3.org/2000/svg">
<path d="M14.4967 10.961L12.8614 9.32567C12.1941 8.65767 11.1134 8.65767 10.4447 9.32567L10.0067 9.76367C8.2934 8.34633 6.64806 6.701 5.23406 4.99033L5.67206 4.55233C6.33806 3.88633 6.33806 2.80233 5.67206 2.13633L4.03673 0.501C3.3694 -0.167 2.28806 -0.167 1.62006 0.501L0.722728 1.39833C-0.105939 2.22633 -0.237939 3.539 0.409395 4.51833C3.03206 8.483 6.51406 11.965 10.4794 14.5877C11.4461 15.227 12.7521 15.123 13.5994 14.2743L14.4967 13.377C15.1661 12.7097 15.1634 11.627 14.4967 10.961Z" transform="translate(0.169434 0.833008)" fill="#444444"/>
</svg>
